<svg version="1.2" xmlns="http://www.w3.org/2000/svg" viewBox="0 0 3300 3302" width="3300" height="3302"><style>.a{fill:#61dfae}</style><path class="a" d="m2058.6 2614.6l-404.6-1284.5-404.5 1284.5q-7.1 28.4-17.7 35.5-10.7 7.1-49.7 7.1h-340.6q-28.4 0-42.6-7.1-14.2-7.1-21.3-35.5l-606.8-1880.6q-17.7-53.3-7.1-67.5 14.2-14.2 74.6-14.2h326.4q35.5 0 46.1 7.1 14.2 7.1 21.3 35.5l386.8 1291.6 397.4-1291.6q7.1-28.4 17.7-35.5 10.7-7.1 49.7-7.1h340.7q39 0 49.6 7.1 10.7 7.1 17.8 35.5l397.4 1291.6 386.8-1291.6q7.1-28.4 17.7-35.5 14.2-7.1 49.7-7.1h326.4q60.3 0 71 14.2 14.2 14.2-3.6 67.5l-606.7 1880.6q-7.1 28.4-21.3 35.5-14.2 7.1-42.6 7.1h-340.6q-39.1 0-49.7-7.1-10.7-7.1-17.7-35.5z"/></svg>